<svg width="425" height="425" viewBox="0 0 425 425" fill="none" xmlns="http://www.w3.org/2000/svg">
<path d="M212.572 0.759766C162.413 0.759766 116.331 18.2137 80.0369 47.2491C67.966 56.8732 57.0369 67.8839 47.3312 79.8732C18.0511 116.331 0.515625 162.494 0.515625 212.816C0.515625 262.976 17.888 308.976 47.005 345.27C56.7106 357.341 67.6397 368.352 79.7106 378.057C116.087 407.337 162.25 424.872 212.573 424.872C262.896 424.872 309.059 407.337 345.435 378.057C357.506 368.352 368.516 357.341 378.14 345.27C407.176 308.976 424.63 262.894 424.63 212.816C424.63 162.493 407.094 116.249 377.814 79.9548C368.109 67.8839 357.179 56.9548 345.108 47.3307C308.813 18.2128 262.732 0.759766 212.572 0.759766ZM276.516 365.334C271.867 368.026 266.566 363.703 268.768 358.809C272.275 351.143 274.151 342.66 274.151 333.689C274.151 333.606 274.151 333.526 274.151 333.526C274.233 331.976 275.293 310.77 259.144 286.628C245.769 266.646 222.85 236.632 218.202 217.547C217.14 213.387 211.677 212.245 209.067 215.59C204.418 221.462 199.605 229.373 198.138 238.019C195.366 254.739 199.932 268.849 183.294 279.697C164.453 292.012 151.648 310.526 151.648 333.608C151.648 342.662 153.606 351.143 157.113 358.892C159.315 363.785 153.769 368.434 149.365 365.416C120.166 345.272 101.081 311.505 101.081 273.336C101.081 232.311 123.185 196.342 156.217 176.931C158.5 175.626 161.355 176.931 161.843 179.459C163.719 189.246 170.897 194.548 179.624 194.548C189.329 194.548 198.22 185.984 197.649 176.115C197.241 170.814 195.12 165.92 193.081 161.108C190.96 156.052 189.248 150.913 187.943 145.612C183.865 129.382 183.212 111.846 186.802 95.5344C188.678 86.8075 192.021 78.4883 196.099 70.577C200.829 61.2791 208.496 52.8784 208.577 52.7968C212.738 47.9848 220.73 50.1869 221.709 56.467C227.092 90.8039 271.787 149.364 297.478 187.616C332.874 240.384 339.48 328.224 276.516 365.334Z" fill="#FF0000"/>
</svg>
